<?xml version="1.0" encoding="UTF-8" standalone="no"?>
<!DOCTYPE svg PUBLIC "-//W3C//DTD SVG 1.1//EN" "http://www.w3.org/Graphics/SVG/1.1/DTD/svg11.dtd">
<svg width="100%" height="100%" viewBox="0 0 213 191" version="1.1" xmlns="http://www.w3.org/2000/svg" xmlns:xlink="http://www.w3.org/1999/xlink" xml:space="preserve" xmlns:serif="http://www.serif.com/" style="fill-rule:evenodd;clip-rule:evenodd;stroke-linejoin:round;stroke-miterlimit:1.41421;">
    <g transform="matrix(1,0,0,1,-95.8773,-0.000354156)">
        <g>
            <g id="logo-v2">
                <path d="M202.001,5.491C210.865,1.931 220.847,0.102 231.949,0.005C253.739,-0.187 271.343,5.404 284.766,16.776C298.186,28.149 305.709,43.83 307.331,63.819L269.031,64.157C268.08,52.844 264.666,44.511 258.788,39.158C253.052,33.934 244.481,31.308 233.076,31.282C243.231,46.668 248.202,66.512 247.988,90.815L247.888,102.178C247.73,120.052 244.443,135.771 238.024,149.334C236.299,152.979 234.381,156.394 232.269,159.577C232.6,159.585 232.933,159.589 233.268,159.59L233.566,159.59C233.665,159.589 233.765,159.589 233.864,159.588C245.611,159.484 254.332,156.706 260.03,151.249C265.728,145.795 268.991,137.062 269.821,125.054L308.123,124.717L308.078,125.203C306.147,145.755 298.729,161.788 285.824,173.303C272.817,184.91 255.591,190.807 234.142,190.996C234.021,190.997 233.9,190.998 233.779,190.999L233.417,191C221.91,191.016 211.437,189 202.001,184.952C192.366,189.085 181.653,191.1 169.86,190.996C148.411,190.807 131.183,184.91 118.176,173.303C105.171,161.698 97.737,145.502 95.877,124.717L134.179,125.054C135.009,137.062 138.273,145.795 143.971,151.249C149.668,156.706 158.389,159.484 170.136,159.588C170.673,159.592 171.205,159.589 171.731,159.577C169.619,156.394 167.701,152.979 165.976,149.334C159.559,135.771 156.27,120.052 156.112,102.178L156.012,90.815C155.798,66.512 160.769,46.668 170.925,31.282C159.52,31.308 150.95,33.934 145.213,39.158C139.336,44.511 135.922,52.844 134.97,64.157L96.669,63.819C98.292,43.83 105.814,28.149 119.236,16.776C132.657,5.404 150.263,-0.187 172.051,0.005C183.154,0.102 193.137,1.931 202.001,5.491ZM202.001,48.125C197.05,57.497 194.656,71.315 194.817,89.58L194.94,103.624C195.22,119.505 197.574,131.929 202,140.897C206.427,131.929 208.78,119.505 209.06,103.624L209.183,89.58C209.345,71.315 206.95,57.497 202.001,48.125Z" style="fill:white;fill-rule:nonzero;"/>
            </g>
        </g>
    </g>
</svg>
