<?xml version="1.0" encoding="UTF-8" standalone="no"?>
<!DOCTYPE svg PUBLIC "-//W3C//DTD SVG 1.1//EN" "http://www.w3.org/Graphics/SVG/1.1/DTD/svg11.dtd">
<svg width="100%" height="100%" viewBox="0 0 294 191" version="1.1" xmlns="http://www.w3.org/2000/svg" xmlns:xlink="http://www.w3.org/1999/xlink" xml:space="preserve" xmlns:serif="http://www.serif.com/" style="fill-rule:evenodd;clip-rule:evenodd;stroke-linejoin:round;stroke-miterlimit:1.41421;">
    <g transform="matrix(1,0,0,1,-55.1196,0)">
        <g transform="matrix(3.59943,0,0,3.59943,-552.509,-140.02)">
            <g id="Calque5">
                <path d="M193.943,91.965C190.343,91.965 186.995,91.365 183.899,90.165C180.803,88.965 178.127,87.213 175.871,84.909C173.615,82.605 171.863,79.809 170.615,76.521C169.367,73.233 168.767,69.501 168.815,65.325C168.863,61.149 169.499,57.429 170.723,54.165C171.947,50.901 173.603,48.141 175.691,45.885C177.779,43.629 180.251,41.901 183.107,40.701C185.963,39.501 189.047,38.901 192.359,38.901C194.711,38.901 196.871,39.201 198.839,39.801C200.807,40.401 202.511,41.145 203.951,42.033C205.391,42.921 206.519,43.857 207.335,44.841C208.151,45.825 208.607,46.677 208.703,47.397C208.799,48.021 208.763,48.549 208.595,48.981C208.427,49.413 208.295,49.725 208.199,49.917C208.055,50.157 207.791,50.445 207.407,50.781C207.023,51.117 206.567,51.381 206.039,51.573C205.175,51.957 204.335,51.933 203.519,51.501C202.703,51.069 201.791,50.529 200.783,49.881C199.775,49.233 198.587,48.609 197.219,48.009C195.851,47.409 194.159,47.109 192.143,47.109C189.887,47.109 187.883,47.625 186.131,48.657C184.379,49.689 182.915,51.045 181.739,52.725C180.563,54.405 179.675,56.337 179.075,58.521C178.475,60.705 178.175,62.973 178.175,65.325C178.175,67.677 178.511,69.969 179.183,72.201C179.855,74.433 180.851,76.413 182.171,78.141C183.491,79.869 185.135,81.249 187.103,82.281C189.071,83.313 191.351,83.805 193.943,83.757C195.287,83.709 196.463,83.553 197.471,83.289C198.479,83.025 199.367,82.701 200.135,82.317C200.903,81.933 201.599,81.513 202.223,81.057C202.847,80.601 203.471,80.133 204.095,79.653C205.295,78.789 206.471,78.621 207.623,79.149C208.727,79.581 209.471,80.181 209.855,80.949C210.239,81.717 210.383,82.509 210.287,83.325C210.191,83.901 209.759,84.681 208.991,85.665C208.223,86.649 207.143,87.609 205.751,88.545C204.359,89.481 202.667,90.285 200.675,90.957C198.683,91.629 196.439,91.965 193.943,91.965Z" style="fill:white;fill-rule:nonzero;"/>
                <path d="M234.911,88.005C233.903,90.165 232.583,91.245 230.951,91.245C230.135,91.245 229.415,91.029 228.791,90.597C228.167,90.165 227.543,89.229 226.919,87.789L211.943,45.093C211.751,44.565 211.631,44.037 211.583,43.509C211.535,42.981 211.607,42.489 211.799,42.033C211.991,41.577 212.315,41.157 212.771,40.773C213.227,40.389 213.863,40.101 214.679,39.909C215.159,39.813 215.663,39.741 216.191,39.693C216.719,39.645 217.247,39.693 217.775,39.837C218.303,39.981 218.795,40.269 219.251,40.701C219.707,41.133 220.079,41.805 220.367,42.717L230.951,73.893L241.535,42.645C241.823,41.877 242.207,41.277 242.687,40.845C243.167,40.413 243.683,40.101 244.235,39.909C244.787,39.717 245.363,39.633 245.963,39.657C246.563,39.681 247.127,39.741 247.655,39.837C250.199,40.365 250.991,42.045 250.031,44.877L234.911,88.005Z" style="fill:white;fill-rule:nonzero;"/>
            </g>
        </g>
    </g>
</svg>
