<?xml version="1.0" encoding="UTF-8" standalone="no"?>
<!DOCTYPE svg PUBLIC "-//W3C//DTD SVG 1.1//EN" "http://www.w3.org/Graphics/SVG/1.1/DTD/svg11.dtd">
<svg width="100%" height="100%" viewBox="0 0 404 97" version="1.1" xmlns="http://www.w3.org/2000/svg" xmlns:xlink="http://www.w3.org/1999/xlink" xml:space="preserve" xmlns:serif="http://www.serif.com/" style="fill-rule:evenodd;clip-rule:evenodd;stroke-linejoin:round;stroke-miterlimit:1.41421;">
    <g transform="matrix(1,0,0,1,7.45217e-11,-47.3994)">
        <g transform="matrix(1.73073,0,0,1.73073,-272.649,21.9191)">
            <g id="Calque4">
                <path d="M182.158,38.914C183.55,38.914 184.654,39.25 185.47,39.922C186.142,40.594 186.478,41.626 186.478,43.018C186.478,44.458 186.142,45.478 185.47,46.078C184.798,46.678 183.694,46.978 182.158,46.978L166.894,46.978L166.894,66.634C166.894,67.306 166.522,67.966 165.778,68.614C165.034,69.262 163.822,69.586 162.142,69.586C160.462,69.586 159.274,69.262 158.578,68.614C157.882,67.966 157.534,67.306 157.534,66.634L157.534,22.642C157.534,21.154 157.918,20.122 158.686,19.546C159.454,18.97 160.606,18.682 162.142,18.682L184.39,18.682C185.782,18.682 186.826,18.982 187.522,19.582C188.218,20.182 188.59,21.226 188.638,22.714C188.686,24.202 188.326,25.246 187.558,25.846C186.79,26.446 185.71,26.746 184.318,26.746L166.894,26.746L166.894,38.914L182.158,38.914Z" style="fill:white;fill-rule:nonzero;"/>
                <path d="M193.822,18.178C193.822,17.074 194.17,16.222 194.866,15.622C195.562,15.022 196.726,14.722 198.358,14.722C199.99,14.722 201.154,15.034 201.85,15.658C202.546,16.282 202.894,17.146 202.894,18.25L202.894,66.562C202.894,67.426 202.486,68.146 201.67,68.722C200.854,69.298 199.75,69.586 198.358,69.586C196.966,69.586 195.862,69.298 195.046,68.722C194.23,68.146 193.822,67.426 193.822,66.562L193.822,18.178Z" style="fill:white;fill-rule:nonzero;"/>
                <path d="M231.91,46.474C231.91,45.274 231.814,44.11 231.622,42.982C231.43,41.854 231.082,40.87 230.578,40.03C230.074,39.19 229.402,38.518 228.562,38.014C227.722,37.51 226.63,37.258 225.286,37.258C223.558,37.258 222.166,37.558 221.11,38.158C220.054,38.758 219.238,39.526 218.662,40.462C218.086,41.398 217.702,42.406 217.51,43.486C217.318,44.566 217.222,45.562 217.222,46.474L231.91,46.474ZM225.502,70.306C222.574,70.306 220.03,69.826 217.87,68.866C215.71,67.906 213.91,66.55 212.47,64.798C211.03,63.046 209.95,60.922 209.23,58.426C208.51,55.93 208.15,53.146 208.15,50.074C208.15,47.098 208.51,44.338 209.23,41.794C209.95,39.25 211.042,37.054 212.506,35.206C213.97,33.358 215.782,31.906 217.942,30.85C220.102,29.794 222.622,29.266 225.502,29.266C228.238,29.266 230.566,29.746 232.486,30.706C234.406,31.666 235.978,32.962 237.202,34.594C238.426,36.226 239.326,38.122 239.902,40.282C240.478,42.442 240.766,44.722 240.766,47.122C240.766,49.138 240.502,50.674 239.974,51.73C239.446,52.786 238.462,53.314 237.022,53.314L217.222,53.314C217.222,54.418 217.342,55.498 217.582,56.554C217.822,57.61 218.266,58.57 218.914,59.434C219.562,60.298 220.426,60.994 221.506,61.522C222.586,62.05 223.966,62.314 225.646,62.314C227.806,62.314 229.498,61.99 230.722,61.342C231.946,60.694 232.918,59.962 233.638,59.146C234.166,58.522 234.694,58.138 235.222,57.994C235.75,57.85 236.242,57.838 236.698,57.958C237.154,58.078 237.562,58.258 237.922,58.498C238.282,58.738 238.582,58.93 238.822,59.074C239.734,59.794 240.094,60.79 239.902,62.062C239.71,63.334 239.026,64.582 237.85,65.806C236.674,67.03 235.042,68.086 232.954,68.974C230.866,69.862 228.382,70.306 225.502,70.306Z" style="fill:white;fill-rule:nonzero;"/>
                <path d="M246.31,37.114C245.11,35.434 244.582,34.138 244.726,33.226C244.87,32.314 245.422,31.594 246.382,31.066C247.486,30.346 248.53,30.058 249.514,30.202C250.498,30.346 251.662,31.33 253.006,33.154L259.918,42.73L266.902,33.01C268.006,31.474 269.026,30.586 269.962,30.346C270.898,30.106 271.87,30.226 272.878,30.706C274.126,31.33 274.87,32.05 275.11,32.866C275.35,33.682 274.942,34.834 273.886,36.322L264.598,49.138L274.39,62.53C275.494,64.066 276.022,65.326 275.974,66.31C275.926,67.294 275.302,68.122 274.102,68.794C272.95,69.466 271.918,69.718 271.006,69.55C270.094,69.382 269.134,68.602 268.126,67.21L259.846,55.834L251.782,66.994C251.254,67.762 250.774,68.362 250.342,68.794C249.91,69.226 249.454,69.514 248.974,69.658C248.494,69.802 247.978,69.802 247.426,69.658C246.874,69.514 246.214,69.25 245.446,68.866C244.294,68.194 243.694,67.486 243.646,66.742C243.598,65.998 244.078,64.93 245.086,63.538L255.166,49.354L246.31,37.114Z" style="fill:white;fill-rule:nonzero;"/>
                <path d="M306.43,50.002C306.478,45.682 305.71,42.466 304.126,40.354C302.542,38.242 300.382,37.21 297.646,37.258C294.91,37.306 292.882,38.482 291.562,40.786C290.242,43.09 289.558,46.186 289.51,50.074C289.462,53.866 290.086,56.854 291.382,59.038C292.678,61.222 294.718,62.314 297.502,62.314C300.286,62.314 302.458,61.354 304.018,59.434C305.578,57.514 306.382,54.37 306.43,50.002ZM289.726,65.842C289.726,66.226 289.666,66.634 289.546,67.066C289.426,67.498 289.186,67.906 288.826,68.29C288.466,68.674 287.986,68.986 287.386,69.226C286.786,69.466 286.03,69.586 285.118,69.586C283.246,69.538 282.01,69.094 281.41,68.254C280.81,67.414 280.51,66.61 280.51,65.842L280.51,18.61C280.51,17.842 280.882,17.038 281.626,16.198C282.37,15.358 283.51,14.914 285.046,14.866C286.582,14.866 287.722,15.298 288.466,16.162C289.21,17.026 289.582,17.842 289.582,18.61L289.582,36.754C290.782,34.306 292.342,32.446 294.262,31.174C296.182,29.902 298.294,29.266 300.598,29.266C302.47,29.266 304.306,29.614 306.106,30.31C307.906,31.006 309.514,32.17 310.93,33.802C312.346,35.434 313.486,37.57 314.35,40.21C315.214,42.85 315.646,46.114 315.646,50.002C315.646,53.17 315.262,55.99 314.494,58.462C313.726,60.934 312.67,63.022 311.326,64.726C309.982,66.43 308.398,67.726 306.574,68.614C304.75,69.502 302.758,69.946 300.598,69.946C298.486,69.946 296.422,69.49 294.406,68.578C292.39,67.666 290.83,65.986 289.726,63.538L289.726,65.842Z" style="fill:white;fill-rule:nonzero;"/>
                <path d="M337.246,29.266C340.558,29.266 343.39,29.794 345.742,30.85C348.094,31.906 350.002,33.37 351.466,35.242C352.93,37.114 354.01,39.322 354.706,41.866C355.402,44.41 355.75,47.146 355.75,50.074C355.75,53.05 355.402,55.774 354.706,58.246C354.01,60.718 352.906,62.842 351.394,64.618C349.882,66.394 347.962,67.786 345.634,68.794C343.306,69.802 340.51,70.306 337.246,70.306C333.982,70.306 331.198,69.79 328.894,68.758C326.59,67.726 324.694,66.31 323.206,64.51C321.718,62.71 320.638,60.562 319.966,58.066C319.294,55.57 318.958,52.858 318.958,49.93C318.958,47.002 319.294,44.278 319.966,41.758C320.638,39.238 321.694,37.054 323.134,35.206C324.574,33.358 326.458,31.906 328.786,30.85C331.114,29.794 333.934,29.266 337.246,29.266ZM337.246,62.314C340.462,62.314 342.826,61.246 344.338,59.11C345.85,56.974 346.606,53.962 346.606,50.074C346.606,46.186 345.886,43.078 344.446,40.75C343.006,38.422 340.558,37.258 337.102,37.258C335.374,37.258 333.934,37.594 332.782,38.266C331.63,38.938 330.706,39.85 330.01,41.002C329.314,42.154 328.822,43.498 328.534,45.034C328.246,46.57 328.102,48.202 328.102,49.93C328.102,53.818 328.822,56.854 330.262,59.038C331.702,61.222 334.03,62.314 337.246,62.314Z" style="fill:white;fill-rule:nonzero;"/>
                <path d="M361.294,37.114C360.094,35.434 359.566,34.138 359.71,33.226C359.854,32.314 360.406,31.594 361.366,31.066C362.47,30.346 363.514,30.058 364.498,30.202C365.482,30.346 366.646,31.33 367.99,33.154L374.902,42.73L381.886,33.01C382.99,31.474 384.01,30.586 384.946,30.346C385.882,30.106 386.854,30.226 387.862,30.706C389.11,31.33 389.854,32.05 390.094,32.866C390.334,33.682 389.926,34.834 388.87,36.322L379.582,49.138L389.374,62.53C390.478,64.066 391.006,65.326 390.958,66.31C390.91,67.294 390.286,68.122 389.086,68.794C387.934,69.466 386.902,69.718 385.99,69.55C385.078,69.382 384.118,68.602 383.11,67.21L374.83,55.834L366.766,66.994C366.238,67.762 365.758,68.362 365.326,68.794C364.894,69.226 364.438,69.514 363.958,69.658C363.478,69.802 362.962,69.802 362.41,69.658C361.858,69.514 361.198,69.25 360.43,68.866C359.278,68.194 358.678,67.486 358.63,66.742C358.582,65.998 359.062,64.93 360.07,63.538L370.15,49.354L361.294,37.114Z" style="fill:white;fill-rule:nonzero;"/>
            </g>
        </g>
    </g>
</svg>
