<?xml version="1.0" encoding="UTF-8" standalone="no"?>
<!DOCTYPE svg PUBLIC "-//W3C//DTD SVG 1.1//EN" "http://www.w3.org/Graphics/SVG/1.1/DTD/svg11.dtd">
<svg width="100%" height="100%" viewBox="0 0 404 157" version="1.1" xmlns="http://www.w3.org/2000/svg" xmlns:xlink="http://www.w3.org/1999/xlink" xml:space="preserve" xmlns:serif="http://www.serif.com/" style="fill-rule:evenodd;clip-rule:evenodd;stroke-linejoin:round;stroke-miterlimit:1.41421;">
    <g transform="matrix(1,0,0,1,5.68434e-14,-27.1128)">
        <g id="Calque4" transform="matrix(1.34667,0,0,1.34667,-68.68,-44.6824)">
            <g transform="matrix(2.16113,0,0,2.19389,-285.873,15.4856)">
                <path d="M192.31,49.282L184.606,49.282C182.878,49.282 181.63,48.982 180.862,48.382C180.094,47.782 179.71,46.714 179.71,45.178C179.71,43.642 180.118,42.538 180.934,41.866C181.75,41.194 182.998,40.858 184.678,40.858L196.702,40.858C198.67,40.858 199.99,41.362 200.662,42.37C201.334,43.378 201.67,45.13 201.67,47.626C201.67,50.65 201.298,53.53 200.554,56.266C199.81,59.002 198.586,61.414 196.882,63.502C195.178,65.59 192.982,67.246 190.294,68.47C187.606,69.694 184.318,70.306 180.43,70.306C176.638,70.306 173.23,69.682 170.206,68.434C167.182,67.186 164.602,65.422 162.466,63.142C160.33,60.862 158.698,58.114 157.57,54.898C156.442,51.682 155.878,48.082 155.878,44.098C155.878,40.306 156.418,36.778 157.498,33.514C158.578,30.25 160.15,27.418 162.214,25.018C164.278,22.618 166.81,20.722 169.81,19.33C172.81,17.938 176.23,17.242 180.07,17.242C182.278,17.242 184.342,17.422 186.262,17.782C188.182,18.142 190.222,18.946 192.382,20.194C193.678,21.01 194.878,21.886 195.982,22.822C197.086,23.758 197.974,24.694 198.646,25.63C199.318,26.566 199.69,27.478 199.762,28.366C199.834,29.254 199.438,30.01 198.574,30.634C198.142,31.018 197.626,31.354 197.026,31.642C196.426,31.93 195.79,32.098 195.118,32.146C194.446,32.194 193.774,32.122 193.102,31.93C192.43,31.738 191.806,31.354 191.23,30.778C189.31,28.714 187.498,27.31 185.794,26.566C184.09,25.822 182.086,25.45 179.782,25.45C177.766,25.45 175.87,25.882 174.094,26.746C172.318,27.61 170.782,28.834 169.486,30.418C168.19,32.002 167.158,33.922 166.39,36.178C165.622,38.434 165.238,40.954 165.238,43.738C165.238,46.57 165.61,49.114 166.354,51.37C167.098,53.626 168.142,55.546 169.486,57.13C170.83,58.714 172.438,59.938 174.31,60.802C176.182,61.666 178.246,62.098 180.502,62.098C182.134,62.098 183.658,61.774 185.074,61.126C186.49,60.478 187.738,59.59 188.818,58.462C189.898,57.334 190.75,55.99 191.374,54.43C191.998,52.87 192.31,51.154 192.31,49.282Z" style="fill:white;fill-rule:nonzero;"/>
                <path d="M204.334,23.434C204.334,22.426 204.418,21.61 204.586,20.986C204.754,20.362 205.054,19.882 205.486,19.546C205.918,19.21 206.53,18.982 207.322,18.862C208.114,18.742 209.134,18.682 210.382,18.682L221.254,18.682C224.086,18.682 226.594,18.91 228.778,19.366C230.962,19.822 232.786,20.602 234.25,21.706C235.714,22.81 236.818,24.286 237.562,26.134C238.306,27.982 238.678,30.274 238.678,33.01C238.678,37.186 237.73,40.378 235.834,42.586C233.938,44.794 231.382,46.258 228.166,46.978C227.686,47.074 227.206,47.17 226.726,47.266C226.246,47.362 225.742,47.434 225.214,47.482L239.326,61.378C240.286,62.338 240.79,63.442 240.838,64.69C240.886,65.938 240.43,67.042 239.47,68.002C238.51,68.962 237.358,69.49 236.014,69.586C234.67,69.682 233.59,69.322 232.774,68.506L213.694,48.418L213.694,65.842C213.694,66.802 213.31,67.666 212.542,68.434C211.774,69.202 210.55,69.586 208.87,69.586C207.19,69.586 206.014,69.178 205.342,68.362C204.67,67.546 204.334,66.706 204.334,65.842L204.334,23.434ZM213.694,39.634L221.254,39.634C223.894,39.634 225.898,39.214 227.266,38.374C228.634,37.534 229.318,35.77 229.318,33.082C229.318,31.834 229.102,30.802 228.67,29.986C228.238,29.17 227.65,28.534 226.906,28.078C226.162,27.622 225.298,27.31 224.314,27.142C223.33,26.974 222.31,26.89 221.254,26.89L213.694,26.89L213.694,39.634Z" style="fill:white;fill-rule:nonzero;"/>
                <path d="M251.566,64.978C251.566,66.514 251.194,67.666 250.45,68.434C249.706,69.202 248.494,69.586 246.814,69.586C245.134,69.586 243.946,69.202 243.25,68.434C242.554,67.666 242.206,66.538 242.206,65.05L242.206,22.57C242.206,19.498 243.742,17.962 246.814,17.962C248.35,17.962 249.526,18.298 250.342,18.97C251.158,19.642 251.566,20.818 251.566,22.498L251.566,64.978Z" style="fill:white;fill-rule:nonzero;"/>
            </g>
            <g transform="matrix(1,0,0,1,-1,6.02157)">
                <path d="M306.253,160.549L276.689,160.549C273.058,160.549 270.75,159.944 269.765,158.733C268.779,157.522 268.286,155.758 268.286,153.441L268.286,57.559C268.286,55.242 268.753,53.478 269.687,52.267C270.62,51.056 272.954,50.451 276.689,50.451L305.475,50.451C313.566,50.451 320.543,51.846 326.404,54.637C332.265,57.427 337.088,61.271 340.874,66.168C344.661,71.065 347.462,76.857 349.277,83.544C351.092,90.231 352,97.47 352,105.263C352,113.582 351.066,121.138 349.199,127.93C347.332,134.723 344.479,140.541 340.641,145.385C336.803,150.229 332.031,153.967 326.326,156.6C320.62,159.233 313.93,160.549 306.253,160.549ZM295.256,93.488C295.72,93.157 296.093,92.636 296.376,91.924C296.797,91.019 296.663,90.096 295.975,89.154C295.592,88.664 295.219,88.174 294.856,87.684C294.492,87.194 294.157,86.648 293.851,86.045C293.545,85.442 293.287,84.745 293.077,83.953C292.866,83.162 292.742,82.239 292.704,81.184C292.665,79.149 293.058,77.359 293.88,75.814C294.703,74.268 295.802,72.978 297.18,71.941C298.557,70.905 300.135,70.123 301.914,69.596C303.693,69.068 305.519,68.804 307.394,68.804C309.268,68.804 311.076,69.04 312.817,69.511C314.557,69.982 316.097,70.679 317.436,71.602C318.775,72.526 319.856,73.675 320.678,75.05C321.501,76.426 321.912,77.999 321.912,79.77C321.912,81.353 321.673,82.682 321.195,83.756C320.716,84.83 320.219,85.762 319.703,86.554C319.186,87.345 318.756,88.061 318.412,88.702C318.067,89.342 318.048,90.002 318.354,90.68C318.507,91.095 318.718,91.453 318.985,91.754C319.253,92.056 319.483,92.263 319.674,92.376C319.827,92.451 320.076,92.555 320.42,92.687C320.764,92.819 321.185,92.847 321.682,92.772C322.256,92.696 322.935,92.338 323.719,91.698C324.504,91.057 325.25,90.171 325.957,89.041C326.665,87.91 327.258,86.572 327.736,85.027C328.215,83.482 328.454,81.787 328.454,79.94C328.454,77.34 327.975,74.919 327.019,72.676C326.063,70.434 324.685,68.493 322.887,66.854C321.089,65.215 318.89,63.915 316.288,62.954C313.687,61.993 310.722,61.493 307.394,61.456C304.066,61.418 301.091,61.889 298.471,62.869C295.85,63.849 293.622,65.224 291.786,66.995C289.949,68.767 288.553,70.867 287.597,73.298C286.64,75.729 286.162,78.357 286.162,81.184C286.162,83.143 286.43,84.905 286.965,86.469C287.501,88.033 288.142,89.361 288.888,90.454C289.634,91.547 290.399,92.395 291.183,92.998C291.54,93.272 291.864,93.492 292.154,93.657C291.535,93.923 290.924,94.334 290.322,94.891C289.691,95.475 289.127,96.257 288.629,97.237C288.056,98.33 287.53,99.621 287.051,101.109C286.573,102.598 286.372,104.19 286.449,105.886C286.602,110.521 287.836,113.969 290.15,116.23C291.074,117.133 292.115,117.861 293.273,118.415C292.936,118.475 292.593,118.576 292.245,118.717C291.594,118.981 290.953,119.405 290.322,119.989C289.691,120.573 289.127,121.355 288.629,122.335C288.056,123.428 287.53,124.719 287.051,126.207C286.573,127.696 286.372,129.288 286.449,130.984C286.602,135.619 287.836,139.067 290.15,141.328C292.465,143.589 295.515,144.757 299.303,144.833C300.718,144.87 301.981,144.71 303.09,144.352C304.2,143.994 305.194,143.41 306.074,142.6C306.954,141.79 307.776,140.763 308.542,139.519C309.307,138.276 310.072,136.806 310.837,135.11C311.143,134.432 311.468,133.669 311.812,132.821C312.157,131.973 312.578,131.163 313.075,130.39C313.572,129.618 314.146,128.967 314.796,128.44C315.447,127.912 316.212,127.649 317.092,127.649C317.627,127.649 318.172,127.762 318.727,127.988C319.282,128.214 319.779,128.525 320.219,128.92C320.659,129.316 321.022,129.797 321.309,130.362C321.596,130.927 321.74,131.568 321.74,132.284C321.74,132.924 321.644,133.556 321.453,134.177C321.262,134.799 321.032,135.383 320.764,135.93C320.496,136.476 320.2,136.994 319.875,137.484C319.55,137.974 319.253,138.407 318.985,138.784C318.756,139.048 318.603,139.387 318.526,139.802C318.45,140.216 318.459,140.64 318.555,141.074C318.651,141.507 318.823,141.922 319.071,142.317C319.32,142.713 319.655,143.043 320.076,143.306C320.917,143.796 321.807,143.862 322.744,143.504C323.681,143.146 324.552,142.468 325.355,141.469C326.158,140.471 326.828,139.218 327.363,137.71C327.899,136.203 328.186,134.564 328.224,132.792C328.262,131.21 328.052,129.655 327.593,128.129C327.134,126.603 326.445,125.237 325.527,124.031C324.609,122.825 323.452,121.855 322.055,121.12C320.659,120.385 319.043,120.017 317.206,120.017C315.485,120.017 313.993,120.319 312.731,120.922C311.468,121.525 310.378,122.335 309.46,123.352C308.542,124.37 307.748,125.566 307.078,126.942C306.409,128.317 305.787,129.797 305.213,131.379C305.022,131.945 304.754,132.576 304.41,133.273C304.066,133.97 303.635,134.611 303.119,135.195C302.602,135.779 302,136.278 301.311,136.693C300.623,137.107 299.819,137.315 298.901,137.315C297.945,137.315 297.094,137.145 296.348,136.806C295.602,136.467 294.98,136.014 294.483,135.449C293.985,134.884 293.603,134.234 293.335,133.499C293.067,132.764 292.933,132.02 292.933,131.266C292.933,130.362 293.048,129.523 293.278,128.751C293.507,127.978 293.804,127.243 294.167,126.546C294.53,125.849 294.932,125.19 295.372,124.568C295.812,123.946 296.223,123.352 296.606,122.787C297.027,122.147 297.189,121.459 297.094,120.724C297.033,120.256 296.821,119.83 296.457,119.447C297.354,119.619 298.303,119.715 299.303,119.735C300.718,119.772 301.981,119.612 303.09,119.254C304.2,118.896 305.194,118.312 306.074,117.502C306.954,116.692 307.776,115.665 308.542,114.421C309.307,113.178 310.072,111.708 310.837,110.012C311.143,109.334 311.468,108.571 311.812,107.723C312.157,106.875 312.578,106.065 313.075,105.292C313.572,104.52 314.146,103.87 314.796,103.342C315.447,102.814 316.212,102.551 317.092,102.551C317.627,102.551 318.172,102.664 318.727,102.89C319.282,103.116 319.779,103.427 320.219,103.823C320.659,104.218 321.022,104.699 321.309,105.264C321.596,105.829 321.74,106.47 321.74,107.186C321.74,107.826 321.644,108.458 321.453,109.079C321.262,109.701 321.032,110.285 320.764,110.832C320.496,111.378 320.2,111.896 319.875,112.386C319.55,112.876 319.253,113.31 318.985,113.686C318.756,113.95 318.603,114.289 318.526,114.704C318.45,115.118 318.459,115.542 318.555,115.976C318.651,116.409 318.823,116.824 319.071,117.219C319.32,117.615 319.655,117.945 320.076,118.209C320.917,118.698 321.807,118.764 322.744,118.406C323.681,118.048 324.552,117.37 325.355,116.371C326.158,115.373 326.828,114.12 327.363,112.612C327.899,111.105 328.186,109.466 328.224,107.695C328.262,106.112 328.052,104.557 327.593,103.031C327.134,101.505 326.445,100.139 325.527,98.933C324.609,97.727 323.452,96.757 322.055,96.022C320.659,95.287 319.043,94.92 317.206,94.92C315.485,94.92 313.993,95.221 312.731,95.824C311.468,96.427 310.378,97.237 309.46,98.255C308.542,99.272 307.748,100.469 307.078,101.844C306.409,103.22 305.787,104.699 305.213,106.281C305.022,106.847 304.754,107.478 304.41,108.175C304.066,108.872 303.635,109.513 303.119,110.097C302.602,110.681 302,111.18 301.311,111.595C300.623,112.009 299.819,112.217 298.901,112.217C297.945,112.217 297.094,112.047 296.348,111.708C295.602,111.369 294.98,110.917 294.483,110.351C293.985,109.786 293.603,109.136 293.335,108.401C293.067,107.666 292.933,106.922 292.933,106.168C292.933,105.264 293.048,104.425 293.278,103.653C293.507,102.88 293.804,102.146 294.167,101.448C294.53,100.751 294.932,100.092 295.372,99.47C295.812,98.848 296.223,98.255 296.606,97.689C297.027,97.049 297.189,96.361 297.094,95.626C296.998,94.891 296.529,94.26 295.688,93.732C295.554,93.636 295.41,93.555 295.256,93.488Z" style="fill:white;fill-rule:nonzero;"/>
            </g>
        </g>
    </g>
</svg>
