<?xml version="1.0" encoding="UTF-8" standalone="no"?>
<!DOCTYPE svg PUBLIC "-//W3C//DTD SVG 1.1//EN" "http://www.w3.org/Graphics/SVG/1.1/DTD/svg11.dtd">
<svg width="100%" height="100%" viewBox="0 0 230 192" version="1.1" xmlns="http://www.w3.org/2000/svg" xmlns:xlink="http://www.w3.org/1999/xlink" xml:space="preserve" xmlns:serif="http://www.serif.com/" style="fill-rule:evenodd;clip-rule:evenodd;stroke-linejoin:round;stroke-miterlimit:1.41421;">
    <g transform="matrix(1,0,0,1,-87,0.234807)">
        <g transform="matrix(3.52977,0,0,3.68324,-514.216,-146.167)">
            <g id="Calque">
                <path d="M179.687,86.637C179.687,88.173 179.315,89.325 178.571,90.093C177.827,90.861 176.615,91.245 174.935,91.245C173.255,91.245 172.067,90.861 171.371,90.093C170.675,89.325 170.327,88.197 170.327,86.709L170.327,44.229C170.327,41.157 171.863,39.621 174.935,39.621C176.471,39.621 177.647,39.957 178.463,40.629C179.279,41.301 179.687,42.477 179.687,44.157L179.687,86.637Z" style="fill:white;fill-rule:nonzero;"/>
                <path d="M201.287,40.341C205.031,40.341 208.259,40.977 210.971,42.249C213.683,43.521 215.915,45.273 217.667,47.505C219.419,49.737 220.715,52.377 221.555,55.425C222.395,58.473 222.815,61.773 222.815,65.325C222.815,69.117 222.383,72.561 221.519,75.657C220.655,78.753 219.335,81.405 217.559,83.613C215.783,85.821 213.575,87.525 210.935,88.725C208.295,89.925 205.199,90.525 201.647,90.525L187.967,90.525C186.287,90.525 185.219,90.249 184.763,89.697C184.307,89.145 184.079,88.341 184.079,87.285L184.079,43.581C184.079,42.525 184.295,41.721 184.727,41.169C185.159,40.617 186.239,40.341 187.967,40.341L201.287,40.341ZM193.439,83.037L201.647,83.037C209.519,83.037 213.455,77.061 213.455,65.109C213.455,62.373 213.239,59.925 212.807,57.765C212.375,55.605 211.631,53.793 210.575,52.329C209.519,50.865 208.127,49.749 206.399,48.981C204.671,48.213 202.487,47.829 199.847,47.829L193.439,47.829L193.439,83.037Z" style="fill:white;fill-rule:nonzero;"/>
                <path d="M225.695,86.709C225.695,85.317 226.163,84.153 227.099,83.217C228.035,82.281 229.199,81.813 230.591,81.813C231.983,81.813 233.147,82.281 234.083,83.217C235.019,84.153 235.487,85.317 235.487,86.709C235.487,88.101 235.019,89.265 234.083,90.201C233.147,91.137 231.983,91.605 230.591,91.605C229.199,91.605 228.035,91.137 227.099,90.201C226.163,89.265 225.695,88.101 225.695,86.709Z" style="fill:white;fill-rule:nonzero;"/>
            </g>
        </g>
    </g>
</svg>
