<?xml version="1.0" encoding="UTF-8" standalone="no"?>
<!DOCTYPE svg PUBLIC "-//W3C//DTD SVG 1.1//EN" "http://www.w3.org/Graphics/SVG/1.1/DTD/svg11.dtd">
<svg width="100%" height="100%" viewBox="0 0 191 191" version="1.1" xmlns="http://www.w3.org/2000/svg" xmlns:xlink="http://www.w3.org/1999/xlink" xml:space="preserve" xmlns:serif="http://www.serif.com/" style="fill-rule:evenodd;clip-rule:evenodd;stroke-linejoin:round;stroke-miterlimit:1.41421;">
    <g transform="matrix(1,0,0,1,-106.5,-5.32907e-15)">
        <g id="Calque1" transform="matrix(2.98438,0,0,2.98438,106.5,-1.05749e-14)">
            <path d="M48,0C56.831,0 64,7.169 64,16L64,48C64,56.831 56.831,64 48,64L16,64C7.169,64 0,56.831 0,48L0,16C0,7.169 7.169,0 16,0L48,0ZM33.25,59.274C32.457,59.274 31.762,59.2 31.167,59.051C30.572,58.902 29.989,58.654 29.418,58.307C29.071,58.108 28.724,57.86 28.377,57.563C28.029,57.265 27.732,56.943 27.484,56.595C27.236,56.248 27.081,55.876 27.019,55.479C26.957,55.082 27.05,54.686 27.298,54.289C27.372,54.165 27.508,54.016 27.707,53.842C27.905,53.669 28.141,53.532 28.414,53.433C28.687,53.334 28.978,53.29 29.288,53.303C29.598,53.315 29.914,53.445 30.237,53.693C30.584,53.966 30.944,54.258 31.316,54.568C31.688,54.878 32.122,55.033 32.618,55.033C33.015,55.033 33.319,54.965 33.53,54.828C33.74,54.692 33.895,54.475 33.995,54.177C34.094,53.88 34.15,53.476 34.162,52.968C34.174,52.46 34.181,51.833 34.181,51.089L34.181,34.161C34.181,33.714 34.367,33.28 34.739,32.859C35.111,32.437 35.731,32.226 36.599,32.226C37.467,32.226 38.087,32.425 38.459,32.821C38.831,33.218 39.017,33.665 39.017,34.161L39.017,53.21C39.017,54.326 38.887,55.275 38.627,56.056C38.366,56.837 37.988,57.464 37.492,57.935C36.996,58.406 36.388,58.747 35.669,58.958C34.95,59.169 34.143,59.274 33.25,59.274ZM47.686,39.221C47.686,39.791 47.86,40.287 48.207,40.709C48.554,41.131 48.982,41.503 49.491,41.825C49.999,42.147 50.532,42.42 51.09,42.644C51.648,42.867 52.151,43.078 52.597,43.276C53.713,43.772 54.681,44.268 55.499,44.764C56.318,45.26 56.994,45.794 57.527,46.364C58.06,46.935 58.445,47.579 58.68,48.299C58.916,49.018 59.021,49.837 58.996,50.754C58.947,53.21 58.178,55.188 56.69,56.689C55.202,58.189 52.932,58.989 49.881,59.088C48.765,59.138 47.717,59.008 46.737,58.698C45.758,58.388 44.908,58.046 44.189,57.674C43.544,57.352 43.029,56.986 42.645,56.577C42.26,56.168 41.981,55.752 41.808,55.331C41.634,54.909 41.553,54.5 41.566,54.103C41.578,53.706 41.684,53.371 41.882,53.098C42.229,52.553 42.645,52.249 43.128,52.187C43.612,52.125 44.065,52.23 44.486,52.503C44.858,52.751 45.249,53.018 45.658,53.303C46.068,53.588 46.502,53.849 46.961,54.084C47.419,54.32 47.903,54.512 48.412,54.661C48.92,54.81 49.472,54.884 50.067,54.884C50.563,54.884 51.053,54.797 51.537,54.624C52.02,54.45 52.448,54.202 52.82,53.88C53.192,53.557 53.49,53.154 53.713,52.67C53.937,52.187 54.048,51.635 54.048,51.015C54.048,50.419 53.912,49.899 53.639,49.452C53.366,49.006 53.037,48.615 52.653,48.28C52.269,47.945 51.847,47.666 51.388,47.443C50.929,47.22 50.514,47.046 50.142,46.922C49.1,46.55 48.126,46.147 47.221,45.713C46.316,45.279 45.528,44.764 44.858,44.169C44.189,43.574 43.656,42.867 43.259,42.048C42.862,41.23 42.663,40.262 42.663,39.146C42.663,37.956 42.905,36.908 43.389,36.002C43.873,35.097 44.511,34.347 45.305,33.752C46.099,33.156 46.998,32.71 48.002,32.412C49.007,32.114 50.03,31.978 51.072,32.003C52.238,32.028 53.316,32.214 54.309,32.561C55.301,32.908 56.125,33.342 56.783,33.863C57.44,34.384 57.887,34.948 58.122,35.556C58.358,36.164 58.314,36.74 57.992,37.286C57.818,37.559 57.601,37.776 57.341,37.937C57.08,38.098 56.808,38.21 56.522,38.272C56.237,38.334 55.958,38.34 55.685,38.291C55.412,38.241 55.189,38.142 55.016,37.993C54.767,37.819 54.482,37.627 54.16,37.416C53.837,37.205 53.496,37.013 53.137,36.84C52.777,36.666 52.393,36.517 51.983,36.393C51.574,36.269 51.159,36.207 50.737,36.207C50.266,36.207 49.844,36.3 49.472,36.486C49.1,36.672 48.784,36.908 48.523,37.193C48.263,37.478 48.058,37.801 47.909,38.16C47.76,38.52 47.686,38.873 47.686,39.221Z" style="fill:white;"/>
        </g>
    </g>
</svg>
