<?xml version="1.0" encoding="UTF-8" standalone="no"?>
<!DOCTYPE svg PUBLIC "-//W3C//DTD SVG 1.1//EN" "http://www.w3.org/Graphics/SVG/1.1/DTD/svg11.dtd">
<svg width="100%" height="100%" viewBox="0 0 398 144" version="1.1" xmlns="http://www.w3.org/2000/svg" xmlns:xlink="http://www.w3.org/1999/xlink" xml:space="preserve" xmlns:serif="http://www.serif.com/" style="fill-rule:evenodd;clip-rule:evenodd;stroke-linejoin:round;stroke-miterlimit:1.41421;">
    <g transform="matrix(1,0,0,1,-3,-23.8696)">
        <g id="Calque2" transform="matrix(1.04776,0,0,1.04776,-14.5701,-4.56078)">
            <g transform="matrix(1.65278,0,0,1.65278,-249.485,-32.2867)">
                <path d="M270.575,42.432C270.575,46.608 269.219,50.976 266.507,55.536C263.795,60.096 260.051,64.068 255.275,67.452C250.499,70.836 245.567,72.96 240.479,73.824C237.551,79.728 235.439,83.856 234.143,86.208L232.631,88.656C242.135,91.008 250.007,94.584 256.247,99.384C259.415,101.832 261.551,104.832 262.655,108.384C263.231,110.208 263.519,111.768 263.519,113.064C263.519,114.36 263.267,115.452 262.763,116.34C262.259,117.228 261.671,117.84 260.999,118.176C260.327,118.512 259.847,118.68 259.559,118.68C259.271,118.68 259.127,118.56 259.127,118.32C259.127,118.08 259.403,117.372 259.955,116.196C260.507,115.02 260.783,113.64 260.783,112.056C260.783,110.472 260.447,108.72 259.775,106.8C259.103,104.88 257.855,103.116 256.031,101.508C254.207,99.9 251.675,98.388 248.435,96.972C245.195,95.556 242.387,94.548 240.011,93.948C237.635,93.348 234.455,92.664 230.471,91.896C226.391,97.608 222.143,101.52 217.727,103.632C215.087,104.928 212.747,105.576 210.707,105.576C208.667,105.576 206.855,105.168 205.271,104.352C202.535,103.008 201.167,100.968 201.167,98.232C201.167,95.496 202.967,93.096 206.567,91.032C210.647,88.632 216.167,87.432 223.127,87.432C225.623,87.432 227.879,87.624 229.895,88.008C232.055,84.648 234.575,80.016 237.455,74.112C237.167,74.112 236.903,74.112 236.663,74.112C233.639,74.112 230.831,73.608 228.239,72.6C225.647,71.592 223.583,70.224 222.047,68.496C220.031,66.24 219.023,63.696 219.023,60.864C219.023,59.376 219.395,57.768 220.139,56.04C220.883,54.312 222.539,52.56 225.107,50.784C227.675,49.008 230.927,47.664 234.863,46.752C235.487,46.608 236.015,46.536 236.447,46.536C236.879,46.536 237.143,46.656 237.239,46.896C237.335,47.136 237.143,47.352 236.663,47.544C236.183,47.736 235.631,47.88 235.007,47.976C232.943,48.216 231.023,48.912 229.247,50.064C226.175,52.032 224.039,55.056 222.839,59.136C222.551,60.096 222.407,61.02 222.407,61.908C222.407,62.796 222.575,63.864 222.911,65.112C223.247,66.36 223.967,67.644 225.071,68.964C226.175,70.284 227.675,71.208 229.571,71.736C231.467,72.264 233.123,72.528 234.539,72.528C235.955,72.528 237.263,72.456 238.463,72.312L244.583,56.904C248.807,46.056 253.847,39.384 259.703,36.888C261.239,36.264 262.739,35.952 264.203,35.952C265.667,35.952 267.059,36.42 268.379,37.356C269.699,38.292 270.407,39.432 270.503,40.776C270.551,41.352 270.575,41.904 270.575,42.432ZM267.551,42.504C267.551,40.68 266.711,39.768 265.031,39.768C262.583,39.768 259.607,41.904 256.103,46.176C253.367,49.584 250.739,53.7 248.219,58.524C245.699,63.348 243.455,67.8 241.487,71.88C248.159,70.392 254.171,66.732 259.523,60.9C264.875,55.068 267.551,48.936 267.551,42.504ZM227.663,91.464C225.311,90.936 222.887,90.672 220.391,90.672C217.895,90.672 215.327,91.032 212.687,91.752C207.167,93.192 203.927,95.232 202.967,97.872C202.775,98.352 202.679,98.808 202.679,99.24C202.679,100.488 203.363,101.508 204.731,102.3C206.099,103.092 207.599,103.488 209.231,103.488C211.487,103.488 213.935,102.864 216.575,101.616C220.559,99.696 224.255,96.312 227.663,91.464Z" style="fill:white;fill-rule:nonzero;"/>
                <path d="M260.063,86.064C259.391,87.696 259.055,89.52 259.055,91.536C259.055,92.88 259.355,93.948 259.955,94.74C260.555,95.532 261.407,95.928 262.511,95.928C266.879,95.928 270.839,91.824 274.391,83.616C274.727,82.848 275.135,82.512 275.615,82.608C275.807,82.656 275.903,82.776 275.903,82.968C275.903,83.16 275.363,84.42 274.283,86.748C273.203,89.076 272.111,90.96 271.007,92.4C268.559,95.76 265.535,97.44 261.935,97.44C260.015,97.44 258.383,96.816 257.039,95.568C255.695,94.32 255.023,92.616 255.023,90.456C255.023,88.296 255.539,86.004 256.571,83.58C257.603,81.156 259.007,78.9 260.783,76.812C262.559,74.724 264.599,73.2 266.903,72.24C268.007,71.76 269.063,71.52 270.071,71.52C271.079,71.52 272.015,71.808 272.879,72.384C273.695,73.056 274.103,73.8 274.103,74.616C274.103,77.496 272.375,80.256 268.919,82.896C267.863,83.712 266.375,84.444 264.455,85.092C262.535,85.74 261.071,86.064 260.063,86.064ZM272.159,74.544C272.159,73.584 271.775,73.104 271.007,73.104C269.663,73.104 267.623,74.76 264.887,78.072C263.255,80.088 261.815,82.344 260.567,84.84C261.383,84.84 262.571,84.552 264.131,83.976C265.691,83.4 267.047,82.632 268.199,81.672C270.839,79.416 272.159,77.04 272.159,74.544Z" style="fill:white;fill-rule:nonzero;"/>
                <path d="M289.799,92.976C289.799,94.512 290.423,95.28 291.671,95.28C293.927,95.28 296.927,91.512 300.671,83.976C300.815,83.688 300.947,83.4 301.067,83.112C301.187,82.824 301.379,82.632 301.643,82.536C301.907,82.44 302.087,82.5 302.183,82.716C302.279,82.932 302.231,83.28 302.039,83.76C298.199,92.688 294.311,97.152 290.375,97.152C289.079,97.152 288.047,96.576 287.279,95.424C286.511,94.272 286.127,93.132 286.127,92.004C286.127,90.876 286.247,89.832 286.487,88.872C283.703,93.48 281.303,96.096 279.287,96.72C278.711,96.96 278.147,97.08 277.595,97.08C277.043,97.08 276.503,97.008 275.975,96.864C273.623,96.24 272.447,94.368 272.447,91.248C272.447,89.136 272.987,86.796 274.067,84.228C275.147,81.66 276.671,79.2 278.639,76.848C280.607,74.496 282.983,72.912 285.767,72.096C286.775,71.76 287.963,71.592 289.331,71.592C290.699,71.592 292.223,72.024 293.903,72.888C297.167,66.744 299.951,61.056 302.255,55.824C302.927,54.24 303.587,53.22 304.235,52.764C304.883,52.308 305.483,52.08 306.035,52.08C306.587,52.08 306.923,52.08 307.043,52.08C307.163,52.08 307.619,52.14 308.411,52.26C309.203,52.38 309.815,52.416 310.247,52.368C309.143,53.376 306.215,58.272 301.463,67.056C295.415,78.288 291.767,85.776 290.519,89.52C290.039,90.912 289.799,92.064 289.799,92.976ZM293.327,74.04C292.703,73.416 291.827,73.104 290.699,73.104C289.571,73.104 287.999,73.944 285.983,75.624C282.767,78.312 280.103,81.624 277.991,85.56C276.599,88.152 275.903,90.288 275.903,91.968C275.903,92.736 276.059,93.432 276.371,94.056C276.683,94.68 277.175,94.992 277.847,94.992C279.479,94.992 281.495,93.312 283.895,89.952C286.295,86.592 289.439,81.288 293.327,74.04Z" style="fill:white;fill-rule:nonzero;"/>
                <path d="M314.135,71.952C317.639,71.952 319.391,74.16 319.391,78.576C319.391,80.592 318.863,82.752 317.807,85.056C316.463,88.176 314.447,91.008 311.759,93.552C312.383,94.752 313.511,95.352 315.143,95.352C316.439,95.352 317.663,94.704 318.815,93.408C320.255,91.92 321.287,90.612 321.911,89.484C322.535,88.356 322.991,87.528 323.279,87C323.567,86.472 323.939,85.716 324.395,84.732C324.851,83.748 325.127,83.148 325.223,82.932C325.319,82.716 325.487,82.608 325.727,82.608C326.207,82.56 326.447,82.728 326.447,83.112C326.447,83.256 326.399,83.424 326.303,83.616L325.871,84.624C325.583,85.296 325.367,85.776 325.223,86.064C325.079,86.352 324.827,86.868 324.467,87.612C324.107,88.356 323.795,88.944 323.531,89.376C323.267,89.808 322.907,90.384 322.451,91.104C321.995,91.824 321.587,92.4 321.227,92.832C320.867,93.264 320.423,93.744 319.895,94.272C319.367,94.8 318.863,95.208 318.383,95.496C317.183,96.216 316.055,96.576 314.999,96.576C313.031,96.576 311.495,95.952 310.391,94.704C308.183,96.336 306.143,97.152 304.271,97.152C300.767,97.152 299.015,94.944 299.015,90.528C299.015,88.512 299.543,86.352 300.599,84.048C302.039,80.688 304.067,77.832 306.683,75.48C309.299,73.128 311.783,71.952 314.135,71.952ZM314.927,74.184C313.631,74.184 312.095,75.048 310.319,76.776C308.543,78.504 306.959,80.856 305.567,83.832C303.887,87.288 303.047,90.12 303.047,92.328C303.047,94.536 303.887,95.64 305.567,95.64C306.767,95.64 308.111,94.992 309.599,93.696C308.831,92.592 308.447,91.416 308.447,90.168C308.543,88.104 309.383,87.072 310.967,87.072C311.591,87.072 312.107,87.288 312.515,87.72C312.923,88.152 313.127,88.548 313.127,88.908C313.127,89.268 313.079,89.64 312.983,90.024C313.799,88.824 314.735,87.12 315.791,84.912C316.991,82.464 317.591,80.064 317.591,77.712C317.591,75.36 316.703,74.184 314.927,74.184Z" style="fill:white;fill-rule:nonzero;"/>
                <path d="M334.871,68.28C334.871,70.44 333.503,72.48 330.767,74.4C331.727,74.448 333.011,74.472 334.619,74.472C336.227,74.472 338.255,74.352 340.703,74.112C340.799,74.256 340.847,74.64 340.847,75.264C340.847,75.888 340.559,76.812 339.983,78.036C339.407,79.26 338.891,80.316 338.435,81.204C337.979,82.092 337.547,82.932 337.139,83.724C336.731,84.516 336.275,85.488 335.771,86.64C335.267,87.792 334.847,88.848 334.511,89.808C333.311,93.456 333.503,95.28 335.087,95.28C337.103,95.28 340.079,91.272 344.015,83.256C344.351,82.632 344.627,82.392 344.843,82.536C345.059,82.68 345.167,82.86 345.167,83.076C345.167,83.292 344.855,84.036 344.231,85.308C343.607,86.58 342.935,87.888 342.215,89.232C341.495,90.576 340.367,92.136 338.831,93.912C337.007,96.12 335.255,97.224 333.575,97.224C331.703,97.224 330.407,96.096 329.687,93.84C329.543,93.408 329.471,92.76 329.471,91.896C329.471,91.032 329.747,89.88 330.299,88.44C330.851,87 331.727,85.248 332.927,83.184C334.127,81.12 334.799,79.908 334.943,79.548C335.087,79.188 335.159,78.84 335.159,78.504C335.159,77.016 333.239,76.224 329.399,76.128L328.535,78.432C325.511,86.352 322.607,91.656 319.823,94.344C319.343,94.776 319.103,94.632 319.103,93.912C319.103,93.768 319.151,93.6 319.247,93.408C321.935,89.856 324.263,85.656 326.231,80.808C328.199,75.96 329.567,71.352 330.335,66.984C330.623,65.496 331.295,64.752 332.351,64.752C333.407,64.752 334.175,65.424 334.655,66.768C334.799,67.2 334.871,67.704 334.871,68.28Z" style="fill:white;fill-rule:nonzero;"/>
            </g>
            <g transform="matrix(0.0747664,0,0,0.0747664,328,98.9579)">
                <path d="M256.975,100.34C257.016,101.076 256.962,101.825 256.777,102.569L240.277,168.569C239.445,171.894 236.465,174.232 233.039,174.25L134.039,174.75C134.026,174.75 134.014,174.75 134.001,174.75L35,174.75C31.556,174.75 28.555,172.404 27.723,169.062L11.223,102.812C11.033,102.048 10.978,101.278 11.026,100.523C4.643,98.512 0,92.539 0,85.5C0,76.815 7.065,69.75 15.75,69.75C24.435,69.75 31.5,76.815 31.5,85.5C31.5,90.391 29.259,94.767 25.75,97.658L46.408,118.472C51.629,123.733 58.874,126.749 66.286,126.749C75.05,126.749 83.406,122.587 88.668,115.614L122.618,70.63C119.766,67.78 118,63.842 118,59.5C118,50.815 125.065,43.75 133.75,43.75C142.435,43.75 149.5,50.815 149.5,59.5C149.5,63.712 147.828,67.535 145.125,70.364C145.134,70.376 145.145,70.386 145.154,70.399L178.858,115.507C184.118,122.547 192.504,126.75 201.293,126.75C208.773,126.75 215.807,123.837 221.096,118.547L241.884,97.759C238.301,94.869 236,90.451 236,85.5C236,76.815 243.065,69.75 251.75,69.75C260.435,69.75 267.5,76.815 267.5,85.5C267.5,92.351 263.095,98.178 256.975,100.34ZM238.667,198.25C238.667,194.108 235.309,190.75 231.167,190.75L37.167,190.75C33.025,190.75 29.667,194.108 29.667,198.25L29.667,216.25C29.667,220.392 33.025,223.75 37.167,223.75L231.167,223.75C235.309,223.75 238.667,220.392 238.667,216.25L238.667,198.25Z" style="fill:white;fill-rule:nonzero;"/>
            </g>
            <g transform="matrix(0.0747664,0,0,0.0747664,16.7693,98.9579)">
                <path d="M256.975,100.34C257.016,101.076 256.962,101.825 256.777,102.569L240.277,168.569C239.445,171.894 236.465,174.232 233.039,174.25L134.039,174.75C134.026,174.75 134.014,174.75 134.001,174.75L35,174.75C31.556,174.75 28.555,172.404 27.723,169.062L11.223,102.812C11.033,102.048 10.978,101.278 11.026,100.523C4.643,98.512 0,92.539 0,85.5C0,76.815 7.065,69.75 15.75,69.75C24.435,69.75 31.5,76.815 31.5,85.5C31.5,90.391 29.259,94.767 25.75,97.658L46.408,118.472C51.629,123.733 58.874,126.749 66.286,126.749C75.05,126.749 83.406,122.587 88.668,115.614L122.618,70.63C119.766,67.78 118,63.842 118,59.5C118,50.815 125.065,43.75 133.75,43.75C142.435,43.75 149.5,50.815 149.5,59.5C149.5,63.712 147.828,67.535 145.125,70.364C145.134,70.376 145.145,70.386 145.154,70.399L178.858,115.507C184.118,122.547 192.504,126.75 201.293,126.75C208.773,126.75 215.807,123.837 221.096,118.547L241.884,97.759C238.301,94.869 236,90.451 236,85.5C236,76.815 243.065,69.75 251.75,69.75C260.435,69.75 267.5,76.815 267.5,85.5C267.5,92.351 263.095,98.178 256.975,100.34ZM238.667,198.25C238.667,194.108 235.309,190.75 231.167,190.75L37.167,190.75C33.025,190.75 29.667,194.108 29.667,198.25L29.667,216.25C29.667,220.392 33.025,223.75 37.167,223.75L231.167,223.75C235.309,223.75 238.667,220.392 238.667,216.25L238.667,198.25Z" style="fill:white;fill-rule:nonzero;"/>
            </g>
            <g transform="matrix(0.0747664,0,0,0.0747664,352.314,98.9579)">
                <path d="M256.975,100.34C257.016,101.076 256.962,101.825 256.777,102.569L240.277,168.569C239.445,171.894 236.465,174.232 233.039,174.25L134.039,174.75C134.026,174.75 134.014,174.75 134.001,174.75L35,174.75C31.556,174.75 28.555,172.404 27.723,169.062L11.223,102.812C11.033,102.048 10.978,101.278 11.026,100.523C4.643,98.512 0,92.539 0,85.5C0,76.815 7.065,69.75 15.75,69.75C24.435,69.75 31.5,76.815 31.5,85.5C31.5,90.391 29.259,94.767 25.75,97.658L46.408,118.472C51.629,123.733 58.874,126.749 66.286,126.749C75.05,126.749 83.406,122.587 88.668,115.614L122.618,70.63C119.766,67.78 118,63.842 118,59.5C118,50.815 125.065,43.75 133.75,43.75C142.435,43.75 149.5,50.815 149.5,59.5C149.5,63.712 147.828,67.535 145.125,70.364C145.134,70.376 145.145,70.386 145.154,70.399L178.858,115.507C184.118,122.547 192.504,126.75 201.293,126.75C208.773,126.75 215.807,123.837 221.096,118.547L241.884,97.759C238.301,94.869 236,90.451 236,85.5C236,76.815 243.065,69.75 251.75,69.75C260.435,69.75 267.5,76.815 267.5,85.5C267.5,92.351 263.095,98.178 256.975,100.34ZM238.667,198.25C238.667,194.108 235.309,190.75 231.167,190.75L37.167,190.75C33.025,190.75 29.667,194.108 29.667,198.25L29.667,216.25C29.667,220.392 33.025,223.75 37.167,223.75L231.167,223.75C235.309,223.75 238.667,220.392 238.667,216.25L238.667,198.25Z" style="fill:white;fill-rule:nonzero;"/>
            </g>
            <g transform="matrix(0.0747664,0,0,0.0747664,41.0835,98.9579)">
                <path d="M256.975,100.34C257.016,101.076 256.962,101.825 256.777,102.569L240.277,168.569C239.445,171.894 236.465,174.232 233.039,174.25L134.039,174.75C134.026,174.75 134.014,174.75 134.001,174.75L35,174.75C31.556,174.75 28.555,172.404 27.723,169.062L11.223,102.812C11.033,102.048 10.978,101.278 11.026,100.523C4.643,98.512 0,92.539 0,85.5C0,76.815 7.065,69.75 15.75,69.75C24.435,69.75 31.5,76.815 31.5,85.5C31.5,90.391 29.259,94.767 25.75,97.658L46.408,118.472C51.629,123.733 58.874,126.749 66.286,126.749C75.05,126.749 83.406,122.587 88.668,115.614L122.618,70.63C119.766,67.78 118,63.842 118,59.5C118,50.815 125.065,43.75 133.75,43.75C142.435,43.75 149.5,50.815 149.5,59.5C149.5,63.712 147.828,67.535 145.125,70.364C145.134,70.376 145.145,70.386 145.154,70.399L178.858,115.507C184.118,122.547 192.504,126.75 201.293,126.75C208.773,126.75 215.807,123.837 221.096,118.547L241.884,97.759C238.301,94.869 236,90.451 236,85.5C236,76.815 243.065,69.75 251.75,69.75C260.435,69.75 267.5,76.815 267.5,85.5C267.5,92.351 263.095,98.178 256.975,100.34ZM238.667,198.25C238.667,194.108 235.309,190.75 231.167,190.75L37.167,190.75C33.025,190.75 29.667,194.108 29.667,198.25L29.667,216.25C29.667,220.392 33.025,223.75 37.167,223.75L231.167,223.75C235.309,223.75 238.667,220.392 238.667,216.25L238.667,198.25Z" style="fill:white;fill-rule:nonzero;"/>
            </g>
            <g transform="matrix(0.0747664,0,0,0.0747664,376.628,98.9579)">
                <path d="M256.975,100.34C257.016,101.076 256.962,101.825 256.777,102.569L240.277,168.569C239.445,171.894 236.465,174.232 233.039,174.25L134.039,174.75C134.026,174.75 134.014,174.75 134.001,174.75L35,174.75C31.556,174.75 28.555,172.404 27.723,169.062L11.223,102.812C11.033,102.048 10.978,101.278 11.026,100.523C4.643,98.512 0,92.539 0,85.5C0,76.815 7.065,69.75 15.75,69.75C24.435,69.75 31.5,76.815 31.5,85.5C31.5,90.391 29.259,94.767 25.75,97.658L46.408,118.472C51.629,123.733 58.874,126.749 66.286,126.749C75.05,126.749 83.406,122.587 88.668,115.614L122.618,70.63C119.766,67.78 118,63.842 118,59.5C118,50.815 125.065,43.75 133.75,43.75C142.435,43.75 149.5,50.815 149.5,59.5C149.5,63.712 147.828,67.535 145.125,70.364C145.134,70.376 145.145,70.386 145.154,70.399L178.858,115.507C184.118,122.547 192.504,126.75 201.293,126.75C208.773,126.75 215.807,123.837 221.096,118.547L241.884,97.759C238.301,94.869 236,90.451 236,85.5C236,76.815 243.065,69.75 251.75,69.75C260.435,69.75 267.5,76.815 267.5,85.5C267.5,92.351 263.095,98.178 256.975,100.34ZM238.667,198.25C238.667,194.108 235.309,190.75 231.167,190.75L37.167,190.75C33.025,190.75 29.667,194.108 29.667,198.25L29.667,216.25C29.667,220.392 33.025,223.75 37.167,223.75L231.167,223.75C235.309,223.75 238.667,220.392 238.667,216.25L238.667,198.25Z" style="fill:white;fill-rule:nonzero;"/>
            </g>
            <g transform="matrix(0.0747664,0,0,0.0747664,65.3977,98.9579)">
                <path d="M256.975,100.34C257.016,101.076 256.962,101.825 256.777,102.569L240.277,168.569C239.445,171.894 236.465,174.232 233.039,174.25L134.039,174.75C134.026,174.75 134.014,174.75 134.001,174.75L35,174.75C31.556,174.75 28.555,172.404 27.723,169.062L11.223,102.812C11.033,102.048 10.978,101.278 11.026,100.523C4.643,98.512 0,92.539 0,85.5C0,76.815 7.065,69.75 15.75,69.75C24.435,69.75 31.5,76.815 31.5,85.5C31.5,90.391 29.259,94.767 25.75,97.658L46.408,118.472C51.629,123.733 58.874,126.749 66.286,126.749C75.05,126.749 83.406,122.587 88.668,115.614L122.618,70.63C119.766,67.78 118,63.842 118,59.5C118,50.815 125.065,43.75 133.75,43.75C142.435,43.75 149.5,50.815 149.5,59.5C149.5,63.712 147.828,67.535 145.125,70.364C145.134,70.376 145.145,70.386 145.154,70.399L178.858,115.507C184.118,122.547 192.504,126.75 201.293,126.75C208.773,126.75 215.807,123.837 221.096,118.547L241.884,97.759C238.301,94.869 236,90.451 236,85.5C236,76.815 243.065,69.75 251.75,69.75C260.435,69.75 267.5,76.815 267.5,85.5C267.5,92.351 263.095,98.178 256.975,100.34ZM238.667,198.25C238.667,194.108 235.309,190.75 231.167,190.75L37.167,190.75C33.025,190.75 29.667,194.108 29.667,198.25L29.667,216.25C29.667,220.392 33.025,223.75 37.167,223.75L231.167,223.75C235.309,223.75 238.667,220.392 238.667,216.25L238.667,198.25Z" style="fill:white;fill-rule:nonzero;"/>
            </g>
        </g>
    </g>
</svg>
