<?xml version="1.0" encoding="UTF-8" standalone="no"?>
<!DOCTYPE svg PUBLIC "-//W3C//DTD SVG 1.1//EN" "http://www.w3.org/Graphics/SVG/1.1/DTD/svg11.dtd">
<svg width="100%" height="100%" viewBox="0 0 240 191" version="1.1" xmlns="http://www.w3.org/2000/svg" xmlns:xlink="http://www.w3.org/1999/xlink" xml:space="preserve" xmlns:serif="http://www.serif.com/" style="fill-rule:evenodd;clip-rule:evenodd;stroke-linejoin:round;stroke-miterlimit:1.41421;">
    <g transform="matrix(1,0,0,1,-88.9179,1.42109e-14)">
        <g transform="matrix(3.51361,0,0,3.51361,-655.449,-72.8767)">
            <path d="M211.852,73.589C211.852,74.309 212.356,74.885 213.004,74.885L225.604,74.885C226.396,74.885 226.828,74.453 226.828,73.877L226.828,51.053C226.828,50.189 227.188,50.189 230.716,50.189C237.628,50.189 243.604,43.565 243.604,36.869C243.604,23.261 232.948,20.885 229.636,20.885L212.86,20.885C212.212,20.885 211.852,21.389 211.852,22.109L211.852,73.589ZM226.828,35.069C226.828,34.853 226.9,34.565 227.044,34.493C227.188,34.421 227.332,34.421 227.548,34.421C228.484,34.421 229.06,35.213 229.06,36.365L229.06,39.317C229.06,40.757 228.628,41.693 227.548,41.693C227.044,41.693 226.828,41.189 226.828,40.901L226.828,35.069Z" style="fill:white;fill-rule:nonzero;"/>
            <path d="M246.196,64.877C246.196,64.517 245.836,64.301 245.476,64.301L236.62,64.301C236.332,64.301 235.9,64.733 235.9,65.093L235.9,74.021C235.9,74.381 236.26,74.885 236.62,74.885L245.404,74.885C245.836,74.885 246.196,74.525 246.196,74.093L246.196,64.877Z" style="fill:white;fill-rule:nonzero;"/>
            <path d="M279.028,37.805C279.604,37.805 279.892,37.373 279.892,36.869C279.892,28.301 273.916,20.741 264.268,20.741C254.62,20.741 249.148,28.733 249.148,36.077C249.148,40.973 251.524,46.373 256.348,50.261C261.172,54.149 265.204,57.317 265.204,59.045C265.204,60.701 264.556,61.349 263.548,61.349C261.82,61.349 260.596,58.253 260.308,55.373C260.236,54.725 259.948,54.437 259.444,54.437L249.508,54.941C248.932,54.941 248.644,55.301 248.644,55.661C248.644,67.181 253.684,75.101 264.628,75.101C274.06,75.101 279.82,67.397 279.82,57.749C279.82,52.421 276.292,47.237 271.612,44.069C267.292,41.117 263.908,38.525 263.908,36.221C263.908,35.501 264.268,34.925 264.988,34.925C265.996,34.925 266.716,35.789 267.148,37.517C267.292,38.093 267.58,38.309 268.012,38.309L279.028,37.805Z" style="fill:white;fill-rule:nonzero;"/>
        </g>
    </g>
</svg>
