<?xml version="1.0" encoding="UTF-8" standalone="no"?>
<!DOCTYPE svg PUBLIC "-//W3C//DTD SVG 1.1//EN" "http://www.w3.org/Graphics/SVG/1.1/DTD/svg11.dtd">
<svg width="100%" height="100%" viewBox="0 0 401 149" version="1.1" xmlns="http://www.w3.org/2000/svg" xmlns:xlink="http://www.w3.org/1999/xlink" xml:space="preserve" xmlns:serif="http://www.serif.com/" style="fill-rule:evenodd;clip-rule:evenodd;stroke-linejoin:round;stroke-miterlimit:1.41421;">
    <g transform="matrix(1,0,0,1,0.0003,-22.9188)">
        <g transform="matrix(0.657465,0,0,0.657465,-60.3287,-168.056)">
            <g id="logo_tek_v1" transform="matrix(1,0,0,1,-182.915,130.201)">
                <g transform="matrix(1,0,0,1,70.656,0)">
                    <path d="M343.986,386.062C346.482,386.062 348.546,385.198 350.178,383.47C351.81,381.742 352.626,379.726 352.626,377.422L352.626,217.006L411.954,217.006C414.45,217.006 416.562,216.142 418.29,214.414C420.018,212.686 420.882,210.574 420.882,208.078L420.882,168.91C420.882,166.606 420.018,164.59 418.29,162.862C416.562,161.134 414.45,160.27 411.954,160.27L212.658,160.27C210.162,160.27 208.098,161.134 206.466,162.862C204.834,164.59 204.018,166.606 204.018,168.91L204.018,208.078C204.018,210.574 204.834,212.686 206.466,214.414C208.098,216.142 210.162,217.006 212.658,217.006L272.274,217.006L272.274,377.422C272.274,379.726 273.138,381.742 274.866,383.47C276.594,385.198 278.61,386.062 280.914,386.062L343.986,386.062Z" style="fill:white;fill-rule:nonzero;"/>
                </g>
                <path d="M635.858,386.062C638.354,386.062 640.418,385.198 642.05,383.47C643.682,381.742 644.498,379.726 644.498,377.422L644.498,335.374C644.498,332.878 643.682,330.766 642.05,329.038C640.418,327.31 638.354,326.446 635.858,326.446L511.314,326.446L511.314,302.254L593.97,301.966C596.274,301.966 598.29,301.102 600.018,299.374C601.746,297.646 602.61,295.534 602.61,293.038L602.61,251.566C602.61,249.262 601.746,247.246 600.018,245.518C598.29,243.79 596.274,242.926 593.97,242.926L511.314,242.926L511.314,219.886L608.082,219.886C610.386,219.886 612.402,219.022 614.13,217.294C615.858,215.566 616.722,213.454 616.722,210.958L616.722,168.91C616.722,166.606 615.858,164.59 614.13,162.862C612.402,161.134 610.386,160.27 608.082,160.27L440.178,160.27C437.874,160.27 435.858,161.134 434.13,162.862C432.402,164.59 431.538,166.606 431.538,168.91L431.538,377.422C431.538,379.726 432.402,381.742 434.13,383.47C435.858,385.198 437.874,386.062 440.178,386.062L635.858,386.062Z" style="fill:white;fill-rule:nonzero;"/>
                <g transform="matrix(1,0,0,1,-13,0)">
                    <path d="M708.306,386.062C710.61,386.062 712.626,385.198 714.354,383.47C716.082,381.742 716.946,379.726 716.946,377.422L716.946,298.798L804.21,383.758C804.786,384.142 805.794,384.622 807.234,385.198C808.674,385.774 809.778,386.062 810.546,386.062L888.018,386.062C890.13,386.062 891.906,385.582 893.346,384.622C894.786,383.662 895.842,382.414 896.514,380.878C897.186,379.342 897.33,377.71 896.946,375.982C896.562,374.254 895.602,372.622 894.066,371.086L784.338,263.95L865.266,174.958C866.61,173.614 867.378,172.078 867.57,170.35C867.762,168.622 867.522,166.99 866.85,165.454C866.178,163.918 865.074,162.67 863.538,161.71C862.002,160.75 860.274,160.27 858.354,160.27L791.538,160.27C790.77,160.27 789.618,160.606 788.082,161.278C786.546,161.95 785.49,162.574 784.914,163.15L716.946,240.622L716.946,168.91C716.946,166.606 716.082,164.59 714.354,162.862C712.626,161.134 710.61,160.27 708.306,160.27L645.81,160.27C643.506,160.27 641.49,161.134 639.762,162.862C638.034,164.59 637.17,166.606 637.17,168.91L637.17,377.422C637.17,379.726 638.034,381.742 639.762,383.47C641.49,385.198 643.506,386.062 645.81,386.062L708.306,386.062Z" style="fill:white;fill-rule:nonzero;"/>
                </g>
            </g>
        </g>
    </g>
</svg>
